<?xml version="1.0" encoding="iso-8859-1"?>
<!-- Generator: Adobe Illustrator 17.1.0, SVG Export Plug-In . SVG Version: 6.00 Build 0)  -->
<!DOCTYPE svg PUBLIC "-//W3C//DTD SVG 1.1//EN" "http://www.w3.org/Graphics/SVG/1.1/DTD/svg11.dtd">
<svg version="1.1" id="Capa_1" xmlns="http://www.w3.org/2000/svg" xmlns:xlink="http://www.w3.org/1999/xlink" x="0px" y="0px"
	 viewBox="0 0 208.667 208.667" style="enable-background:new 0 0 208.667 208.667;" xml:space="preserve">
<path d="M104.333,208.667C46.804,208.667,0,161.863,0,104.334C0,46.804,46.804,0,104.333,0c57.53,0,104.334,46.804,104.334,104.333
	C208.667,161.863,161.863,208.667,104.333,208.667z M104.333,4C49.009,4,4,49.01,4,104.334c0,55.324,45.009,100.333,100.333,100.333
	s100.334-45.009,100.334-100.333C204.667,49.01,159.657,4,104.333,4z M104.333,186.305c-17.718,0-34.148-5.61-47.61-15.149
	c-0.014-0.006-0.026-0.012-0.039-0.019c-0.219-0.107-0.409-0.249-0.568-0.416c-1.721-1.243-3.394-2.551-5.012-3.92
	c-0.228-0.129-0.421-0.297-0.575-0.491c-4.858-4.185-9.226-8.925-13.002-14.121c-0.188-0.176-0.337-0.386-0.442-0.614
	c-1.64-2.3-3.164-4.686-4.565-7.152c-0.143-0.175-0.252-0.372-0.328-0.582c-3.354-6.014-5.979-12.489-7.752-19.303
	c-0.045-0.124-0.078-0.251-0.098-0.381c-1.149-4.506-1.927-9.154-2.298-13.919c-0.003-0.022-0.004-0.043-0.006-0.065
	c-0.163-2.115-0.246-4.255-0.246-6.411c0-12.759,2.91-24.852,8.102-35.649c0.05-0.163,0.121-0.322,0.216-0.474
	c0.018-0.029,0.037-0.058,0.057-0.086c5.396-11.008,13.175-20.65,22.657-28.244c0.17-0.199,0.373-0.357,0.595-0.472
	c11.2-8.803,24.727-14.774,39.487-16.828c0.049-0.009,0.097-0.015,0.146-0.021c3.691-0.507,7.455-0.768,11.283-0.768
	c5.664,0,11.196,0.573,16.542,1.665c0.11,0.014,0.22,0.036,0.325,0.067c13.262,2.764,25.363,8.719,35.468,17.025
	c0.225,0.122,0.429,0.288,0.598,0.496c7.15,5.991,13.275,13.168,18.067,21.227c0.066,0.079,0.128,0.163,0.184,0.254
	c0.065,0.108,0.12,0.221,0.164,0.335c1.001,1.715,1.94,3.468,2.818,5.259c0.021,0.029,0.041,0.06,0.06,0.091
	c0.096,0.153,0.168,0.314,0.218,0.479c5.188,10.795,8.099,22.887,8.099,35.644c0,2.145-0.082,4.269-0.243,6.372
	c-0.002,0.048-0.006,0.095-0.012,0.142c-0.372,4.748-1.147,9.381-2.292,13.872c-0.021,0.137-0.056,0.271-0.104,0.4
	c-1.772,6.809-4.395,13.279-7.747,19.289c-0.075,0.212-0.188,0.413-0.332,0.59c-1.4,2.463-2.925,4.85-4.563,7.148
	c-0.105,0.228-0.255,0.438-0.442,0.614c-3.776,5.196-8.141,9.933-12.999,14.118c-0.155,0.196-0.351,0.365-0.58,0.495
	c-1.618,1.369-3.289,2.675-5.01,3.918c-0.159,0.167-0.35,0.309-0.568,0.416c-0.013,0.006-0.025,0.013-0.039,0.019
	C138.481,180.695,122.051,186.305,104.333,186.305z M60.128,168.654c12.601,8.612,27.824,13.651,44.205,13.651
	s31.604-5.04,44.206-13.651l-30.372-61.988l-12.881,8.332c-0.095,0.064-0.194,0.12-0.298,0.167c-0.268,0.122-0.526,0.18-0.835,0.179
	c-0.285,0-0.573-0.063-0.843-0.189c-0.101-0.047-0.198-0.104-0.292-0.168l-12.529-8.298L60.128,168.654z M54.604,164.514
	c0.733,0.602,1.479,1.19,2.233,1.765l31.063-63.396c0.253-0.517,0.717-0.899,1.271-1.05c0.556-0.149,1.149-0.055,1.629,0.263
	l13.374,8.857l13.712-8.869c0.479-0.31,1.069-0.4,1.62-0.248c0.551,0.153,1.011,0.534,1.262,1.047l31.062,63.396
	c0.755-0.575,1.5-1.164,2.233-1.766l-31.53-62.933c-0.456-0.91-0.155-2.018,0.698-2.573l16.127-10.487
	c0.48-0.313,1.074-0.404,1.626-0.25c0.554,0.154,1.014,0.538,1.264,1.055l27.805,57.406c0.785-1.197,1.539-2.417,2.26-3.658
	L144.62,87.917c-0.477-0.948-0.129-2.103,0.79-2.631l14.094-8.104c0.48-0.277,1.054-0.341,1.585-0.178
	c0.529,0.163,0.969,0.539,1.211,1.037l19.322,39.741c0.437-2.411,0.762-4.856,0.972-7.337l-17.32-34.769
	c-0.46-0.923-0.143-2.045,0.734-2.59l8.229-5.114c-0.377-0.734-0.768-1.463-1.167-2.184l-67.867,41.371
	c-0.644,0.394-1.454,0.39-2.096-0.008L35.82,65.387c-0.479,0.851-0.942,1.714-1.391,2.585l8.229,5.114
	c0.877,0.545,1.194,1.667,0.734,2.59l-17.321,34.771c0.211,2.479,0.536,4.929,0.972,7.337l19.323-39.743
	c0.242-0.499,0.682-0.875,1.211-1.037c0.529-0.164,1.104-0.099,1.585,0.178l14.094,8.104c0.919,0.529,1.267,1.683,0.79,2.631
	l-27.691,55.158c0.719,1.239,1.475,2.462,2.259,3.658l27.805-57.406c0.25-0.517,0.71-0.901,1.264-1.055
	c0.549-0.154,1.145-0.063,1.626,0.25l16.127,10.487c0.854,0.555,1.154,1.663,0.698,2.573L54.604,164.514z M41.239,150.49
	c3.043,4.098,6.477,7.893,10.243,11.325l30.274-60.428L69.03,93.111L41.239,150.49z M126.909,101.387l30.275,60.427
	c3.767-3.432,7.199-7.226,10.242-11.324l-27.791-57.379L126.909,101.387z M28.446,124.049c1.374,5.134,3.257,10.064,5.59,14.73
	l25.588-50.967l-10.597-6.093L28.446,124.049z M149.043,87.812l25.587,50.966c2.335-4.667,4.216-9.593,5.59-14.73l-20.58-42.329
	L149.043,87.812z M37.87,61.951l66.301,41.153l66.87-40.763c-4.236-6.798-9.479-12.902-15.524-18.105L127.37,62.201
	c-0.479,0.305-1.065,0.392-1.613,0.24c-0.548-0.152-1.005-0.531-1.256-1.041l-13.982-28.314c-0.323-0.655-0.265-1.434,0.154-2.033
	c0.419-0.598,1.125-0.921,1.856-0.841l8.349,0.916l-1.714-4.502c-4.805-0.922-9.761-1.404-14.831-1.404
	c-3.214,0-6.387,0.194-9.501,0.571l-9.509,35.243c-0.169,0.626-0.63,1.131-1.238,1.355c-0.608,0.225-1.288,0.14-1.822-0.227
	l-27.795-19.04C47.983,48.467,42.371,54.821,37.87,61.951z M32.684,71.595c-4.2,9.318-6.634,19.597-6.873,30.407l13.191-26.48
	L32.684,71.595z M169.665,75.523l13.19,26.478c-0.239-10.808-2.674-21.088-6.872-30.405L169.665,75.523z M115.72,34.587
	l11.379,23.042l25.154-16.055c-8.313-6.42-17.943-11.214-28.409-13.899l1.937,5.086c0.248,0.651,0.14,1.384-0.287,1.935
	c-0.426,0.551-1.103,0.84-1.8,0.765L115.72,34.587z M57.776,40.543l24.42,16.728l8.319-30.833
	C78.427,28.593,67.284,33.523,57.776,40.543z"/>
<g>
</g>
<g>
</g>
<g>
</g>
<g>
</g>
<g>
</g>
<g>
</g>
<g>
</g>
<g>
</g>
<g>
</g>
<g>
</g>
<g>
</g>
<g>
</g>
<g>
</g>
<g>
</g>
<g>
</g>
</svg>
